<svg xmlns="http://www.w3.org/2000/svg" viewBox="0 0 448 512">
<!--!Font Awesome Free 6.7.1 by @fontawesome - https://fontawesome.com License - https://fontawesome.com/license/free Copyright 2024 Fonticons, Inc.-->
<path d="M384 32c35.3 0 64 28.7 64 64l0 320c0 35.3-28.7 64-64 64L64 480c-35.3 0-64-28.7-64-64L0 96C0 60.7 28.7 32 64 32l320 0zM160 144c-13.3 0-24 10.7-24 24s10.7 24 24 24l94.1 0L119 327c-9.4 9.4-9.4 24.6 0 33.9s24.6 9.4 33.9 0l135-135L288 328c0 13.3 10.7 24 24 24s24-10.7 24-24l0-160c0-13.3-10.7-24-24-24l-152 0z"/></svg>

<svg xmlns="http://www.w3.org/2000/svg" viewBox="0 0 512 512">
<!--!Font Awesome Free 6.7.1 by @fontawesome - https://fontawesome.com License - https://fontawesome.com/license/free Copyright 2024 Fonticons, Inc.-->
<path d="M256 464a208 208 0 1 1 0-416 208 208 0 1 1 0 416zM256 0a256 256 0 1 0 0 512A256 256 0 1 0 256 0zM376.9 294.6c4.5-4.2 7.1-10.1 7.1-16.3c0-12.3-10-22.3-22.3-22.3L304 256l0-96c0-17.7-14.3-32-32-32l-32 0c-17.7 0-32 14.3-32 32l0 96-57.7 0C138 256 128 266 128 278.3c0 6.2 2.6 12.1 7.1 16.3l107.1 99.9c3.8 3.5 8.7 5.5 13.8 5.5s10.1-2 13.8-5.5l107.1-99.9z"/></svg>
